<?xml version="1.0" encoding="UTF-8" standalone="no"?>
<!DOCTYPE svg PUBLIC "-//W3C//DTD SVG 20010904//EN"
              "http://www.w3.org/TR/2001/REC-SVG-20010904/DTD/svg10.dtd">

<svg xmlns="http://www.w3.org/2000/svg"
     width="190.476mm" height="190.476mm"
     viewBox="0 0 720 720">
  <path id="Selection"
        fill="none" stroke="black" stroke-width="1"
        d="M 235.00,298.00
           C 235.00,233.10 229.58,166.17 270.89,111.00
             292.03,82.77 323.38,64.91 357.00,55.85
             371.39,51.97 386.16,49.58 401.00,48.04
             401.00,48.04 422.00,47.00 422.00,47.00
             441.17,46.97 460.51,47.96 479.12,50.88
             521.25,57.47 560.28,73.74 589.57,109.00
             612.45,136.55 626.94,180.21 627.00,216.00
             627.00,216.00 627.00,256.00 627.00,256.00
             627.00,256.00 627.00,344.00 627.00,344.00
             627.00,344.00 556.00,344.00 556.00,344.00
             556.00,344.00 556.00,262.00 556.00,262.00
             556.00,262.00 555.04,250.00 555.04,250.00
             555.04,250.00 555.04,235.00 555.04,235.00
             554.70,209.72 544.87,181.98 525.00,165.61
             493.83,139.95 454.40,138.55 416.00,139.00
             416.00,139.00 406.00,139.92 406.00,139.92
             379.91,142.00 352.31,149.34 333.04,168.09
             316.40,184.28 308.04,211.15 307.96,234.00
             307.96,234.00 307.96,249.00 307.96,249.00
             307.96,249.00 307.00,261.00 307.00,261.00
             307.00,261.00 307.00,344.00 307.00,344.00
             307.00,344.00 243.00,344.00 243.00,344.00
             243.00,344.00 235.00,342.98 235.00,342.98
             235.00,342.98 211.00,320.00 211.00,320.00
             211.00,320.00 137.00,246.00 137.00,246.00
             137.00,246.00 94.00,290.00 94.00,290.00
             94.00,290.00 131.00,326.00 131.00,326.00
             131.00,326.00 200.00,395.00 200.00,395.00
             200.00,395.00 224.00,419.00 224.00,419.00
             231.55,426.55 233.03,430.98 244.00,431.00
             244.00,431.00 311.00,431.00 311.00,431.00
             311.00,431.00 311.00,602.00 311.00,602.00
             311.00,602.00 388.00,602.00 388.00,602.00
             388.00,602.00 388.00,457.00 388.00,457.00
             388.00,457.00 463.00,457.00 463.00,457.00
             463.00,457.00 463.00,602.00 463.00,602.00
             463.00,602.00 552.00,602.00 552.00,602.00
             552.00,602.00 552.00,425.00 552.00,425.00
             552.00,425.00 627.00,425.00 627.00,425.00
             627.00,425.00 627.00,691.00 627.00,691.00
             627.00,691.00 235.00,691.00 235.00,691.00
             235.00,691.00 235.00,487.00 235.00,487.00
             234.98,476.03 230.55,474.55 223.00,467.00
             223.00,467.00 194.00,438.00 194.00,438.00
             194.00,438.00 89.00,333.00 89.00,333.00
             89.00,333.00 61.00,305.00 61.00,305.00
             57.87,301.87 50.41,294.72 48.94,290.72
             50.22,285.28 61.04,276.96 65.00,273.00
             65.00,273.00 98.00,240.00 98.00,240.00
             101.15,236.85 110.03,228.86 111.09,225.00
             111.82,222.34 110.28,217.75 109.65,215.00
             109.65,215.00 105.42,196.00 105.42,196.00
             105.42,196.00 95.58,152.00 95.58,152.00
             95.58,152.00 91.33,132.00 91.33,132.00
             91.00,128.17 92.45,123.91 93.00,120.00
             103.78,123.17 104.62,134.67 107.15,144.00
             107.15,144.00 119.15,189.00 119.15,189.00
             119.15,189.00 126.00,215.00 126.00,215.00
             126.00,215.00 136.09,204.02 136.09,204.02
             136.09,204.02 140.97,204.00 140.97,204.00
             140.97,204.00 165.00,228.00 165.00,228.00
             165.00,228.00 235.00,298.00 235.00,298.00 Z
           M 367.00,307.00
           C 367.00,307.00 485.00,307.00 485.00,307.00
             485.00,307.00 485.00,344.00 485.00,344.00
             485.00,344.00 367.00,344.00 367.00,344.00
             367.00,344.00 367.00,307.00 367.00,307.00 Z" />
</svg>
